<svg xmlns="http://www.w3.org/2000/svg" xml:space="preserve" width="446.72208" height="446.72208" viewBox="0 0 446.72207 446.72207"><g transform="matrix(1.33333 0 0 -1.33333 -396.448 861.762)"><circle cx="464.39865" cy="-478.60153" r="166.62407" style="fill:#fff;stroke-width:.225" transform="scale(1 -1)"/><g style="fill:#274c59;stroke-width:.237451"><g style="fill:#274c59;stroke-width:.237451"><path d="M0 0q-.589-.549-1.536-.42-.946.13-1.708.941a5.6 5.6 0 0 0-.559.696 4.3 4.3 0 0 0-.413.767l.695 1.032q.021-.576.242-1.124.222-.548.619-.972.337-.36.838-.502T-.975.6q.447.417.19 1.315a216 216 0 0 1-.51 1.749q-.177 1.027.461 1.622.625.583 1.417.349t1.48-.968a4.8 4.8 0 0 0 .831-1.198l-.802-.748q.014.383-.15.806a2.2 2.2 0 0 1-.443.72q-.344.367-.751.496t-.749-.188q-.397-.372-.147-1.27t.51-1.755Q.554.516 0 0" style="fill:#274c59;fill-opacity:1;fill-rule:nonzero;stroke:none;stroke-width:.237451" transform="matrix(4.2114 0 0 4.2114 361.7 367.06)"/></g><g style="fill:#274c59;stroke-width:.237451"><path d="m0 0-3.231 2.423a.6.6 0 0 1 .533.121q.248.19.498.523l.134.177L.138 6.169l.146.193q.268.356.369.619a.55.55 0 0 1-.059.517l2.497-1.836.147-.111a.53.53 0 0 1 .252-.116l-.66-.924q-.041.315-.225.547a2.6 2.6 0 0 1-.485.458q-.27.204-.446.317-.175.114-.385.222L.203 4.614l.922-.692q.086-.063.177-.127a.5.5 0 0 1 .199-.082l-.596-.839a.52.52 0 0 1-.13.383 3 3 0 0 1-.419.369l-.573.43-1.39-1.843.914-.832.17-.128A2.35 2.35 0 0 1 1.098.765Z" style="fill:#274c59;fill-opacity:1;fill-rule:nonzero;stroke:none;stroke-width:.237451" transform="matrix(4.2114 0 0 4.2114 376.815 345.1)"/></g><g style="fill:#274c59;stroke-width:.237451"><path d="M0 0q-.614-1.33-1.973-1.778t-2.706.17q-1.348.62-1.885 1.906t.08 2.625q.585 1.269 1.949 1.714 1.363.447 2.755-.192Q-.415 3.819.077 2.526T0 0m-1.085.285q.475 1.03.219 2.06-.255 1.03-1.268 1.495t-1.927.089q-.915-.375-1.382-1.387a2.9 2.9 0 0 1-.169-2.03q.284-1.053 1.269-1.506.995-.457 1.895-.091t1.363 1.37" style="fill:#274c59;fill-opacity:1;fill-rule:nonzero;stroke:none;stroke-width:.237451" transform="matrix(4.2114 0 0 4.2114 418.644 338.928)"/></g><g style="fill:#274c59;stroke-width:.237451"><path d="m0 0 .123.628A1.8 1.8 0 0 0-.793.199a3 3 0 0 0-1.106.013 2.9 2.9 0 0 0-.931.349 1.95 1.95 0 0 0-.672.664 1.55 1.55 0 0 0-.251.842q.004.429.139 1.112l.498 2.546.058.295q.074.38.045.661a.54.54 0 0 1-.267.427l1.813-.324a.6.6 0 0 1-.415-.333 2.5 2.5 0 0 1-.215-.668l-.049-.247-.498-2.545q-.181-.93.114-1.467.296-.535 1.041-.681.42-.081.819.013.4.094.643.324.243.228.304.384.059.156.127.498L.965 4.93l.058.295q.075.38.044.661a.55.55 0 0 1-.275.428l1.823-.325.003-.03a.55.55 0 0 1-.423-.322 2.7 2.7 0 0 1-.218-.687l-.043-.218-.703-3.591-.045-.228a2.7 2.7 0 0 1-.062-.718.56.56 0 0 1 .28-.439Z" style="fill:#274c59;fill-opacity:1;fill-rule:nonzero;stroke:none;stroke-width:.237451" transform="matrix(4.2114 0 0 4.2114 441.18 320.027)"/></g><g style="fill:#274c59;stroke-width:.237451"><path d="m0 0-3.984-.027q.27.118.351.419.08.3.077.717l-.001.222-.025 3.659-.002.241q-.003.446-.083.716a.55.55 0 0 1-.361.375l1.851.042a.6.6 0 0 1-.341-.409 2.6 2.6 0 0 1-.078-.688l.002-.271.03-4.228L-1.246.69q1.009.006 1.722.603Z" style="fill:#274c59;fill-opacity:1;fill-rule:nonzero;stroke:none;stroke-width:.237451" transform="matrix(4.2114 0 0 4.2114 474.213 318.37)"/></g><g style="fill:#274c59;stroke-width:.237451"><path d="M0 0c.042-.288-.081-.58-.445-.634-.365-.053-.567.192-.61.479-.041.279.084.561.448.615C-.242.513-.041.278 0 0" style="fill:#274c59;fill-opacity:1;fill-rule:nonzero;stroke:none;stroke-width:.237451" transform="matrix(4.2114 0 0 4.2114 488.46 334.992)"/></g><g style="fill:#274c59;stroke-width:.237451"><path d="M0 0q.25.258.3.521.048.263-.16.95l-1.092 3.59-1.067-.323q.567.434.948 1.012.382.577.534 1.242l1.623-5.234.059-.195.046-.149a1.4 1.4 0 0 1 .26-.504 1 1 0 0 1 .488-.292Z" style="fill:#274c59;fill-opacity:1;fill-rule:nonzero;stroke:none;stroke-width:.237451" transform="matrix(4.2114 0 0 4.2114 507.603 323.926)"/></g><g style="fill:#274c59;stroke-width:.237451"><path d="M0 0a3.4 3.4 0 0 0 .36-1.593 3.95 3.95 0 0 0-.364-1.621 5.3 5.3 0 0 0-.869-1.337 7 7 0 0 0-1.252-1.074l.161.754q.959.763 1.31 2.02.352 1.256-.181 2.313Q-1.211.206-1.881.57q-.67.363-1.378.008a1.33 1.33 0 0 1-.712-.83q-.168-.556.116-1.119.306-.606.867-.829t1.156.076q.225.113.424.305.2.192.351.431l-.226-1.014a2.2 2.2 0 0 0-.636-.482q-.771-.387-1.55-.144-.78.244-1.177 1.032-.472.934-.116 1.852.357.917 1.301 1.391.995.5 1.972.133Q-.511 1.012 0 0" style="fill:#274c59;fill-opacity:1;fill-rule:nonzero;stroke:none;stroke-width:.237451" transform="matrix(4.2114 0 0 4.2114 538.695 354.467)"/></g><g style="fill:#274c59;stroke-width:.237451"><path d="M0 0q.502-.654.229-1.516-.273-.861-1.174-1.548-.863-.658-1.749-.719-.888-.06-1.389.594-.384.5-.317 1.058.066.557.432 1.178a2.3 2.3 0 0 0-1.07-.06q-.496.097-.839.544-.449.585-.214 1.338.234.752 1.043 1.369.692.528 1.496.635.803.106 1.293-.532a1.17 1.17 0 0 0 .246-.862A3 3 0 0 0-2.326.471q.861.182 1.381.132Q-.425.555 0 0m-2.985 1.664a.95.95 0 0 1-.764.394q-.468.008-1.013-.407a1.6 1.6 0 0 1-.529-.666.69.69 0 0 1 .099-.724q.33-.43.846-.35.515.082 1.405.396.155.337.159.712a1 1 0 0 1-.203.645M-.714-.691q-.443.576-1.037.399A28 28 0 0 1-3.31-.829a2 2 0 0 1-.271-.86q-.042-.477.2-.793.366-.478.932-.485.566-.009 1.172.455.476.363.687.872.213.51-.124.949" style="fill:#274c59;fill-opacity:1;fill-rule:nonzero;stroke:none;stroke-width:.237451" transform="matrix(4.2114 0 0 4.2114 565.925 363.12)"/></g><g style="fill:#274c59;stroke-width:.237451"><path d="M0 0q.715-.642.619-1.654t-.932-1.94a5.5 5.5 0 0 0-.952-.824l-1.041.324q.383.149.757.412t.666.586q.492.547.575 1.175T-.753-.82q-.477.427-1.066.274a2.1 2.1 0 0 1-1.037-.65 3.6 3.6 0 0 1-.753-1.314L-5.974-.103l2.333 2.588.875-.784a1.26 1.26 0 0 1-.694-.269 4.6 4.6 0 0 1-.667-.617l-.671-.816 1.138-1.144q.204.414.536.782.675.749 1.531.887Q-.738.661 0 0" style="fill:#274c59;fill-opacity:1;fill-rule:nonzero;stroke:none;stroke-width:.237451" transform="matrix(4.2114 0 0 4.2114 583.467 383.647)"/></g><g style="fill:#274c59;stroke-width:.237451"><path d="M0 0a.61.61 0 0 1-.466.279 2.6 2.6 0 0 1-.707-.048L-1.446.18l-1.763-.332.663-3.508 1.763.332.234.043q.438.083.701.213a.56.56 0 0 1 .319.421l.378-1.836a.61.61 0 0 1-.474.267 2.7 2.7 0 0 1-.716-.049l-.253-.048-3.686-.693-.301-.057a2.4 2.4 0 0 1-.646-.207.55.55 0 0 1-.305-.413l-.377 1.835a.62.62 0 0 1 .472-.267q.307-.027.724.051l.253.048 1.213.228-.664 3.508-1.213-.228-.31-.058a2.4 2.4 0 0 1-.645-.207.55.55 0 0 1-.302-.423l-.38 1.855a.61.61 0 0 1 .49-.274q.322-.024.73.052l.224.042 3.686.694.233.043q.448.085.706.213.257.13.311.43z" style="fill:#274c59;fill-opacity:1;fill-rule:nonzero;stroke:none;stroke-width:.237451" transform="matrix(4.2114 0 0 4.2114 333.889 460.41)"/></g><g style="fill:#274c59;stroke-width:.237451"><path d="m0 0 3.597-2.539 1.565-.045q.526-.015.765.052.241.067.508.415L6.41-4.041a.7.7 0 0 1-.412.343 2.3 2.3 0 0 1-.656.102l-.308.009-1.466.042L.866-5.106a5 5 0 0 1-.641-.416 1.8 1.8 0 0 1-.397-.492l.026.898q.008.267.075.457a.5.5 0 0 0 .213.276L2.79-2.877.968-1.603a1.3 1.3 0 0 1-.247.143.7.7 0 0 1-.259.056.5.5 0 0 1-.263-.067.7.7 0 0 1-.219-.265Z" style="fill:#274c59;fill-opacity:1;fill-rule:nonzero;stroke:none;stroke-width:.237451" transform="matrix(4.2114 0 0 4.2114 305.571 495.936)"/></g><g style="fill:#274c59;stroke-width:.237451"><path d="m0 0-.638.145q.328-.39.409-.945a3 3 0 0 0-.049-1.124 2.9 2.9 0 0 0-.386-.936 2 2 0 0 0-.7-.663 1.6 1.6 0 0 0-.869-.227 6.6 6.6 0 0 0-1.132.176l-2.587.589-.299.068a2.4 2.4 0 0 1-.675.067.55.55 0 0 1-.444-.258l.388 1.834a.62.62 0 0 1 .327-.434 2.7 2.7 0 0 1 .676-.24l.251-.056 2.586-.589q.945-.216 1.503.069t.729 1.036q.098.425.013.834a1.4 1.4 0 0 1-.31.665q-.225.254-.383.32a3 3 0 0 1-.505.145l-2.914.664-.299.068q-.386.087-.675.065a.56.56 0 0 1-.447-.265l.391 1.843.032.003a.56.56 0 0 1 .315-.441q.28-.15.695-.244l.222-.051 3.648-.83.232-.052q.443-.102.731-.086.288.015.458.27Z" style="fill:#274c59;fill-opacity:1;fill-rule:nonzero;stroke:none;stroke-width:.237451" transform="matrix(4.2114 0 0 4.2114 337.407 515.446)"/></g><g style="fill:#274c59;stroke-width:.237451"><path d="m0 0 4.55-2.227.444-.218q-.369-.368-.709-.519-.34-.153-.942-.275l-5.388-1.143 3.461-1.694q.472-.231.743-.277.271-.044.616.183L2.03-7.75q-.047.418-.254.614-.208.194-.67.42l-3.554 1.74q-.48.235-.741.275-.262.04-.605-.187l.613 1.313a.6.6 0 0 1 .292.023l.235.039 5.715 1.224L-.314-.637q-.471.23-.741.275-.27.044-.605-.188l.74 1.572q.043-.407.255-.603Q-.453.222 0 0" style="fill:#274c59;fill-opacity:1;fill-rule:nonzero;stroke:none;stroke-width:.237451" transform="matrix(4.2114 0 0 4.2114 331.568 558.187)"/></g><g style="fill:#274c59;stroke-width:.237451"><path d="M0 0q1.133-.927 1.196-2.305.064-1.378-.989-2.659l-1.505-1.831a.93.93 0 0 1-.137.572q-.153.226-.459.477l-.23.188-2.893 2.366-.237.194q-.315.256-.574.361a.5.5 0 0 1-.491-.052l1.513 1.888Q-3.734.503-2.441.721T0 0m-.623-.944q-.995.813-1.94.706T-4.31-1.322q-.27-.327-.48-.755l3.802-3.109q.267.214.512.513.758.923.776 1.941T-.623-.944" style="fill:#274c59;fill-opacity:1;fill-rule:nonzero;stroke:none;stroke-width:.237451" transform="matrix(4.2114 0 0 4.2114 360.03 582.148)"/></g><g style="fill:#274c59;stroke-width:.237451"><path d="M0 0q.174.358.053.515Q-.02.61-.222.73q-.201.12-.304.192l-1.282.773L-3.786.181l.443-1.419q.063-.214.112-.344a.9.9 0 0 1 .128-.232.37.37 0 0 1 .214-.141.6.6 0 0 1 .321.028l-1.425-1.128q.171.393.123.73a8 8 0 0 1-.237.989l-1.212 4.282q-.059.19-.104.322a.7.7 0 0 1-.105.209.37.37 0 0 1-.188.14q-.105.03-.276-.038l1.221.971 4.716-2.76q.59-.346.911-.481.321-.133.734-.055Zm-2.483 2.101-2.303 1.394.751-2.582z" style="fill:#274c59;fill-opacity:1;fill-rule:nonzero;stroke:none;stroke-width:.237451" transform="matrix(4.2114 0 0 4.2114 389.566 588.33)"/></g><g style="fill:#274c59;stroke-width:.237451"><path d="M0 0a.58.58 0 0 1 .118.526 2.7 2.7 0 0 1-.261.672l-.12.227-1.749 3.299-.148.279a2.3 2.3 0 0 1-.389.554.55.55 0 0 1-.486.168l1.647.903a.62.62 0 0 1-.114-.535q.067-.305.262-.672l.12-.227L.629 1.895l.111-.21a2.7 2.7 0 0 1 .41-.604.56.56 0 0 1 .497-.179Z" style="fill:#274c59;fill-opacity:1;fill-rule:nonzero;stroke:none;stroke-width:.237451" transform="matrix(4.2114 0 0 4.2114 399.738 594.592)"/></g><g style="fill:#274c59;stroke-width:.237451"><path d="M0 0a.61.61 0 0 1 .27.47q.024.299-.061.705l-.056.271-.366 1.752-3.504-.728.365-1.752.049-.232q.091-.436.226-.696a.57.57 0 0 1 .428-.31l-1.833-.41a.61.61 0 0 1 .259.477q.022.306-.063.713l-.052.251-.765 3.663-.063.3a2.4 2.4 0 0 1-.219.64.55.55 0 0 1-.42.296l1.833.411a.61.61 0 0 1-.26-.477 2.7 2.7 0 0 1 .065-.721l.052-.25.252-1.206 3.504.728L-.61 5.1l-.065.309q-.08.386-.219.638a.55.55 0 0 1-.43.294l1.853.414a.61.61 0 0 1-.266-.493q-.018-.322.066-.728l.047-.222.765-3.664.048-.231q.093-.445.227-.699a.56.56 0 0 1 .436-.303Z" style="fill:#274c59;fill-opacity:1;fill-rule:nonzero;stroke:none;stroke-width:.237451" transform="matrix(4.2114 0 0 4.2114 443.203 609.953)"/></g><g style="fill:#274c59;stroke-width:.237451"><path d="M0 0q.262.119.336.422.073.304.057.719l-.009.256-.138 3.729-.012.316a2.3 2.3 0 0 1-.108.668.55.55 0 0 1-.365.362l1.876.098a.61.61 0 0 1-.335-.432 2.7 2.7 0 0 1-.058-.718l.01-.257.138-3.729.009-.237a2.7 2.7 0 0 1 .105-.722.56.56 0 0 1 .37-.376Z" style="fill:#274c59;fill-opacity:1;fill-rule:nonzero;stroke:none;stroke-width:.237451" transform="matrix(4.2114 0 0 4.2114 455.823 611.329)"/></g><g style="fill:#274c59;stroke-width:.237451"><path d="M0 0a32 32 0 0 0-1.363-.065 7.5 7.5 0 0 0-1.029.063q-1.854.23-2.809 1.285-.954 1.055-.767 2.556.196 1.58 1.431 2.369 1.234.788 3.05.563a7.6 7.6 0 0 0 1.529-.359l-.141-1.129q-.256.34-.724.544a3.7 3.7 0 0 1-.988.267q-1.168.144-2.021-.467-.853-.612-1-1.789-.148-1.188.567-2.083.716-.897 1.893-1.042.726-.09 1.397.016l.176 1.413q.056.451.012.731a.6.6 0 0 1-.325.434L.393 3.15a.8.8 0 0 1-.066-.206 5 5 0 0 1-.04-.239L.006.448-.02.242A.6.6 0 0 1 0 0" style="fill:#274c59;fill-opacity:1;fill-rule:nonzero;stroke:none;stroke-width:.237451" transform="matrix(4.2114 0 0 4.2114 494.666 609.447)"/></g><g style="fill:#274c59;stroke-width:.237451"><path d="M0 0q.3.015.48.254.178.24.325.629l.096.259.627 1.677-3.355 1.247-.626-1.677-.083-.222a2.8 2.8 0 0 1-.18-.709.56.56 0 0 1 .197-.49l-1.771.626a.61.61 0 0 1 .474.267q.183.247.328.637l.089.24 1.31 3.507.107.286q.138.37.156.658a.55.55 0 0 1-.197.474l1.771-.626a.61.61 0 0 1-.474-.266 2.6 2.6 0 0 1-.33-.644l-.09-.24-.431-1.154 3.354-1.247.431 1.154.11.295q.138.37.156.657a.55.55 0 0 1-.207.477l1.789-.634a.61.61 0 0 1-.488-.277 2.8 2.8 0 0 1-.333-.65l-.08-.213L1.846.789 1.763.567a2.7 2.7 0 0 1-.182-.712.56.56 0 0 1 .208-.489Z" style="fill:#274c59;fill-opacity:1;fill-rule:nonzero;stroke:none;stroke-width:.237451" transform="matrix(4.2114 0 0 4.2114 515.93 601.361)"/></g><g style="fill:#274c59;stroke-width:.237451"><path d="M0 0q-.515-.64-1.489-.647-.975-.006-1.862.704a6 6 0 0 0-.667.621 4.5 4.5 0 0 0-.528.714l.551 1.143q.105-.578.409-1.1.304-.52.766-.891.394-.315.919-.386.526-.072.829.306.392.486 0 1.356-.39.87-.769 1.692-.328 1.01.23 1.705.545.678 1.379.557.833-.122 1.636-.763a4.9 4.9 0 0 0 1.013-1.089l-.701-.872a2.1 2.1 0 0 1-.269.792 2.3 2.3 0 0 1-.551.663 1.8 1.8 0 0 1-.832.392q-.43.072-.728-.299-.347-.432.037-1.302t.769-1.7Q.483.602 0 0" style="fill:#274c59;fill-opacity:1;fill-rule:nonzero;stroke:none;stroke-width:.237451" transform="matrix(4.2114 0 0 4.2114 559.331 583.06)"/></g><g style="fill:#274c59;stroke-width:.237451"><path d="M0 0a3 3 0 0 0-.629.392q-.31.248-.573.555-1.137 1.328-1.098 2.69Q-2.261 5-1.048 6.034q1.169.996 2.514.87 1.345-.125 2.341-1.287.282-.33.51-.687t.477-.846l-.867-.738a3.8 3.8 0 0 1-.258.948 3.1 3.1 0 0 1-.507.812q-.668.78-1.605.825-.938.044-1.759-.656-.86-.732-1.022-1.791t.557-1.899A3.6 3.6 0 0 1 .152.888 5.2 5.2 0 0 1 1.183.385Z" style="fill:#274c59;fill-opacity:1;fill-rule:nonzero;stroke:none;stroke-width:.237451" transform="matrix(4.2114 0 0 4.2114 572.246 557.751)"/></g><g style="fill:#274c59;stroke-width:.237451"><path d="M0 0a.61.61 0 0 1 .528-.128q.294.061.661.256l.245.13 1.584.84-1.68 3.153-1.584-.841-.21-.111a2.8 2.8 0 0 1-.607-.411.56.56 0 0 1-.178-.497l-.909 1.641a.62.62 0 0 1 .532-.115q.301.065.669.26l.227.121L2.59 6.054l.271.144q.35.186.555.389a.55.55 0 0 1 .167.485l.909-1.64a.62.62 0 0 1-.532.115 2.7 2.7 0 0 1-.675-.264l-.227-.12-1.09-.578 1.68-3.153 1.09.578.279.148q.349.186.554.389.204.204.162.494l.917-1.659a.61.61 0 0 1-.549.117 2.8 2.8 0 0 1-.682-.267l-.201-.107L1.906-.631l-.21-.111a2.7 2.7 0 0 1-.609-.413.56.56 0 0 1-.169-.503Z" style="fill:#274c59;fill-opacity:1;fill-rule:nonzero;stroke:none;stroke-width:.237451" transform="matrix(4.2114 0 0 4.2114 583.858 536.594)"/></g><g style="fill:#274c59;stroke-width:.237451"><path d="M0 0q-1.453-.358-2.676.438-1.223.797-1.586 2.261-.362 1.466.325 2.711.687 1.246 2.15 1.606 1.386.341 2.61-.459 1.224-.801 1.599-2.314.367-1.485-.354-2.698Q1.348.332 0 0m-.463 1.044q1.127.277 1.787 1.136t.388 1.959-1.154 1.59-1.988.217a2.98 2.98 0 0 1-1.731-1.157q-.661-.894-.396-1.967.267-1.082 1.132-1.565.866-.483 1.962-.213" style="fill:#274c59;fill-opacity:1;fill-rule:nonzero;stroke:none;stroke-width:.237451" transform="matrix(4.2114 0 0 4.2114 610.072 499.929)"/></g><g style="fill:#274c59;stroke-width:.237451"><path d="M0 0q-1.497-.006-2.497 1.056-1.001 1.061-1.006 2.57-.006 1.51.956 2.558.963 1.05 2.47 1.055 1.426.006 2.427-1.061 1-1.067 1.007-2.625.005-1.529-.982-2.538Q1.388.005 0 0m-.203 1.124q1.16.004 2.005.683.845.68.841 1.813t-.746 1.817q-.741.683-1.881.678a3 3 0 0 1-1.955-.717q-.854-.714-.851-1.818.005-1.114.731-1.788.726-.672 1.856-.668" style="fill:#274c59;fill-opacity:1;fill-rule:nonzero;stroke:none;stroke-width:.237451" transform="matrix(4.2114 0 0 4.2114 610.73 462.962)"/></g><g style="fill:#274c59;stroke-width:.237451"><path d="m0 0 .91 3.951a.61.61 0 0 1 .334-.446q.28-.15.695-.246l.222-.051 3.646-.835.241-.055q.444-.102.732-.087.287.015.458.269L6.844.658a.61.61 0 0 1-.327.434q-.27.148-.666.238l-.269.062-4.215.966-.388-1.287q-.231-1 .195-1.846Z" style="fill:#274c59;fill-opacity:1;fill-rule:nonzero;stroke:none;stroke-width:.237451" transform="matrix(4.2114 0 0 4.2114 591.48 441.964)"/></g><g style="fill:#274c59;stroke-width:.237451"><path d="M0 0a.26.26 0 0 0-.002.159.117.117 0 0 1-.096.148.26.26 0 0 0-.145.067.94.94 0 0 1-1.154.108l-.59-.371c-.078.109-.209.164-.334.122-.623-.212-.906-.68-.896-1.403.002-.143.004-.34-.073-.419-.172-.177-.668-.546-1.285-1.074.087.573.163 1.148.239 1.722.079.594.273.842.732.971.221.062.515.227.58.423.068.205-.099.504-.152.716.324.141.759.258 1.116.508.322.227.626.65.41 1.072-.111.216-.548.232-.84.34.027.017.117.095.219.134.594.229 1.009.665 1.311 1.264.418.827.3 1.094-.574 1.134.819.716 1.105 1.605.741 2.668-.084.246-.337.598-.506.594-.332-.008-.566-.184-.73-.441l.002.014-.015-.03C-2.3 8-2.374 7.378-2.361 6.89c-.102.151-.347.34-.433.35-.227.026-.515-.482-.572-.715-.107-.442-.065-.927-.087-1.384-.506.2-.686.147-.749-.474-.057-.557.075-1.135.113-1.705.015-.227 0-.456-.001-.76-.152.101-.201.115-.204.137l-.487 2.845c.217.807.511 1.577.681 1.916.039.079.189.133.287.129.538-.02.833.157 1.042.706a.3.3 0 0 1-.011.233l.396.742a.86.86 0 0 1-.19 1.044.25.25 0 0 0-.072.126.107.107 0 0 1-.143.076.24.24 0 0 0-.144-.013.854.854 0 0 1-.964-.436l-.257-.482a.26.26 0 0 1-.245-.078c-.39-.441-.421-.925-.127-1.471.057-.108.137-.257.109-.352-.06-.209-.285-.698-.541-1.36-.465 1.015-.485 2.048-.261 3.104.028.132.16.263.275.343.455.319.598.813.656 1.352.042.387-.058.631-.494.401.85 1.362.86 1.802.063 1.914.426.593.543 1.111.244 1.399-.149.144-.431.122-.721.192-.032.145-.075.44-.163.718-.157.494-.542.825-.838.708-.459-.18-.404-.616-.372-1.027q.01-.102.023-.202c-.613-.23-.461-.668-.085-1.298-.755-.149-.803-.265-.444-1.072.021-.047.077-.108.065-.135-.316-.702.183-.971.602-1.296-.382-.603-.024-1.016.353-1.296.515-.382.464-.848.37-1.49-.609 1.204-1.265 2.271-1.692 3.437-.118.217-.244.443-.373.669-.121.622-.188 1.201-.196 1.497-.002.084.096.202.177.248.447.25.609.539.541 1.09a.27.27 0 0 1-.134.2l.079.581a.784.784 0 0 1-.491.831.23.23 0 0 0-.102.085.1.1 0 0 1-.068.044.1.1 0 0 1-.078-.024.2.2 0 0 0-.119-.056.78.78 0 0 1-.684-.677l-.085-.619a.26.26 0 0 1-.17-.188c-.125-.552.06-.96.536-1.258.093-.059.223-.141.242-.233.026-.127.048-.383.082-.726-.448.73-.883 1.347-1.153 1.512-.189.115-.002.545-.04.816-.064.458-.085.954-.272 1.351-.213.453-.459.417-.73.06-.093.463-.148.968-.308 1.428-.081.234-.345.521-.541.536-.169.012-.359-.329-.529-.503-.127.463-.079 1.23-.84 1.297-.199.017-.419-.254-.63-.394-.367.116-.806.326-1.26.383-.549.069-.75-.322-.441-.832.135-.223.84-.831.73-1.066l-.136-.29a.4.4 0 0 1-.051-.161c-.013-.303.542-.543.749-.594.332-.08.694-.012 1.033-.008-.314-.581-.129-.929 1.303-.965-.11-.623.279-.922.712-.995 1.091-.181 2.102-1.825 2.852-3.293l-.014-.009c-.109.172-.209.352-.33.514-.229.307-.444.637-.715.897-.23.219-.512.266-.6-.067-.268.299-.528.653-.851.918-.124.102-.5.181-.63.053-.119-.117-.052-.354-.069-.504.007.06-.604.387-.673.423-.249.131-.474.165-.749.08-.295-.09-.491-.355-.29-.66.167-.252.396-.446.567-.69.121-.175.067-.145.036-.338a.54.54 0 0 1 .048-.335c.243-.467.987-.213 1.366-.169-.126-.015-.181-.46-.152-.542.043-.118.163-.182.277-.218.427-.136.902-.057 1.341-.061-.123.001.03-.447.126-.496.279-.141.613.088.887.075.171-.009.192-.395.354-.489.158-.09.407-.011.572.01a.75.75 0 0 0 .297-.036l.042-.087q.02-.025.035-.051c.957-1.95 1.808-3.949 1.954-6.209.004-.048-.019-.097-.029-.147l-.142-.041c-.113.436-.253.867-.332 1.311-.085.482-.068.989-.18 1.461-.07.294-.168.726-.584.575.06.022-.387 1.425-.44 1.56-.08.203-.182.423-.344.567-.184.162-.375.138-.541-.017-.121-.113-.373-.347-.324-.551-.133.54-.389 1.103-.995 1.381-.521.238-.682.163-.825-.54-.347.743-.917.983-1.564 1.012-.159.008-.59-.046-.623-.277-.058-.412.333-1.028.574-1.304.084-.096.882-.792.985-.656-.404-.535-.382-.852.142-1.138.334-.183.737-.22 1.111-.31.171-.041.347-.051.562-.08-.078-.11-.141-.185-.19-.269-.237-.414-.078-.853.362-.895.424-.041.855.006 1.275.014-.537-.699-.43-1.102.396-1.455.12-.052.238-.108.359-.156 1.08-.425 1.654-1.613 1.388-2.937-.343.304-.686.583-.996.901-.08.082-.078.285-.076.432.011.746-.281 1.228-.923 1.447-.146.049-.302-.027-.374-.17l-.821.318a.926.926 0 0 1-1.097-.349.26.26 0 0 0-.127-.096.12.12 0 0 1-.069-.069.12.12 0 0 1 .008-.097.27.27 0 0 0 .033-.156.94.94 0 0 1 .601-.991l.709-.275a.36.36 0 0 1 .098-.369c.513-.442.913-.445 1.461-.094.099.064.283.099.367.042.781-.541 1.321-1.227 1.161-2.346-.122-.858-.202-1.723-.301-2.585l-.139-.015c-.081.241-.098.554-.25.711-.122.127-.397.077-.574.102.091.549.262 1.14.273 1.735.019.942-.187 1.048-.833.65-.283.401-.508.853-.842 1.164-.377.35-.685.188-.825-.334-.177-.658-.16-1.29.21-1.739-.267-.18-.624-.284-.736-.525-.244-.526-.045-1.124.369-1.455.153-.122.32-.221.437-.301-.209-.129-.545-.215-.596-.397-.072-.256-.007-.639.134-.867.247-.398.598-.718.91-1.077-.42-.271-.49-.768-.232-1.156.892-1.346.387-2.414-.461-3.451-.123-.151-.252-.297-.378-.446l-.15.125c.166.263.302.559.506.781.431.468.669 1 .648 1.667-.006.203-.17.348-.352.331l-.075.799c-.043.419-.351.751-.727.82a.25.25 0 0 0-.129.074.1.1 0 0 1-.083.033.1.1 0 0 1-.075-.045.23.23 0 0 0-.112-.089c-.357-.12-.593-.49-.551-.908l.081-.859a.43.43 0 0 1-.238-.304c-.135-.81.094-1.225.887-1.707-.026-1.246-.837-2.258-1.958-3.011l-.507.497c.302.279.669.611 1.026.954.12.115.264.243.312.397.061.201.238.787-.09.816-.21.018-.532.002-.481.346.025.163.235.314.33.447.102.142.197.294.25.465.136.437-.081.844-.353 1.162.017.242.108.604.043.928-.049.243-.166.514-.395.624-.281.136-.569-.112-.75-.344-.177-.228-.233-.568-.342-.86-.828.246-.949-.361-.708-1.261-.224-.106-.526-.141-.629-.317-.337-.574-.098-1.105.304-1.596-.742.024-1.1-.595-.85-1.391.076-.243.197-.468.315-.701.045-.09-.009-.201-.104-.212-.4-.049-.435-.17-.509-1.108a.2.2 0 0 0-.189-.187c-.267-.01-.342-.207-.305-.577.055-.551-.198-1.09-.662-1.335q-.088-.046-.175-.089c-.067-.034-.125-.054-.169-.123-.049-.077-.067-.171-.109-.251s-.089-.177-.149-.239a1 1 0 0 0-.074-.059c.127.798.179 1.419.234 1.648.023.097.164.18.266.24.518.301.729.73.612 1.324a.28.28 0 0 1-.143.19l-.009.712c-.008.425-.285.785-.65.886a.25.25 0 0 0-.121.084.1.1 0 0 1-.079.041.1.1 0 0 1-.078-.039.23.23 0 0 0-.117-.081c-.362-.091-.624-.445-.616-.87l.01-.823a.28.28 0 0 1-.18-.222c-.091-.586.074-.901.543-1.184.085-.051.186-.181.181-.271-.022-.383-.148-1.205-.358-2.016a35 35 0 0 0-2.148-1.288.4.4 0 0 1-.085.178c.035-.045.938.768 1.021.855.126.13.258.284.314.466.064.206-.014.36-.18.451-.122.068-.374.209-.509.104.359.28.698.67.716 1.269.015.514-.09.626-.656.529.444.524.445 1.08.266 1.636-.044.137-.217.484-.398.44-.324-.078-.66-.6-.79-.889-.045-.1-.314-.99-.182-1.035-.521.175-.75.059-.8-.472-.032-.34.065-.692.115-1.036.022-.157.069-.309.114-.5-.106.032-.181.062-.259.077-.38.072-.657-.198-.552-.583.102-.371.269-.72.406-1.073-.685.237-.951.022-.958-.785 0-.118-.005-.235-.003-.352a2.2 2.2 0 0 0-.06-.548 54 54 0 0 0-2.415-1.068c.324.506.55.9.669 1.05.06.077.221.087.337.093.589.032.953.321 1.089.911a.3.3 0 0 1-.067.258l.266.603a.92.92 0 0 1-.235 1.071.24.24 0 0 0-.076.126.1.1 0 0 1-.056.07.1.1 0 0 1-.088-.002.23.23 0 0 0-.141-.024c-.37.07-.757-.138-.923-.524l-.288-.651a.26.26 0 0 1-.228-.12c-.32-.485-.3-.846.008-1.318.055-.086.094-.249.053-.328-.162-.309-.555-.913-1.022-1.502a69 69 0 0 0-.826-.323.34.34 0 0 1-.064.128c-.07.087-.214.267-.341.233.336.091.688.268.864.696.151.367.105.481-.331.586.464.242.616.644.639 1.101.005.113-.025.418-.169.442-.255.044-.64-.229-.813-.398-.06-.059-.497-.619-.413-.693-.33.289-.527.276-.708-.093-.116-.236-.141-.52-.199-.785-.026-.12-.034-.245-.054-.397-.067.056-.113.101-.166.136-.255.17-.529.06-.558-.251-.027-.299-.001-.604.001-.902-.378.338-.619.321-.824-.083-.205.404-.446.421-.825.083.003.298.029.603.001.902-.029.311-.302.421-.558.251-.052-.035-.098-.08-.166-.136-.02.152-.027.277-.053.397-.058.265-.084.549-.2.785-.18.369-.377.382-.707.093.084.074-.353.634-.413.693-.173.169-.558.442-.814.398-.143-.024-.174-.329-.168-.442.022-.457.174-.859.638-1.101-.436-.105-.482-.219-.331-.586.176-.428.528-.605.864-.696-.127.034-.271-.146-.341-.233a.34.34 0 0 1-.064-.128 85 85 0 0 0-.826.323c-.467.589-.86 1.193-1.021 1.502-.041.079-.003.242.053.328.307.472.327.833.008 1.318a.26.26 0 0 1-.229.12l-.287.651c-.167.386-.553.594-.923.524a.23.23 0 0 0-.142.024.1.1 0 0 1-.087.002.1.1 0 0 1-.056-.07.25.25 0 0 0-.077-.126.925.925 0 0 1-.235-1.071l.267-.603a.3.3 0 0 1-.068-.258c.136-.59.5-.879 1.09-.911.116-.006.277-.016.337-.093.118-.15.344-.544.668-1.05q-1.301.54-2.415 1.068a2.2 2.2 0 0 0-.059.548c.002.117-.003.234-.004.352-.007.807-.273 1.022-.957.785.136.353.304.702.405 1.073.105.385-.171.655-.552.583-.078-.015-.152-.045-.258-.077.044.191.091.343.114.5.049.344.146.696.114 1.036-.049.531-.278.647-.8.472.133.045-.136.935-.182 1.035-.13.289-.465.811-.79.889-.181.044-.354-.303-.398-.44-.179-.556-.178-1.112.267-1.636-.566.097-.672-.015-.657-.529.019-.599.358-.989.717-1.269-.136.105-.388-.036-.51-.104-.166-.091-.243-.245-.179-.451.056-.182.187-.336.313-.466.084-.087.987-.9 1.022-.855a.4.4 0 0 1-.086-.178c-.817.452-1.529.885-2.147 1.288-.211.811-.337 1.633-.358 2.016-.005.09.096.22.181.271.469.283.633.598.542 1.184a.28.28 0 0 1-.18.222l.01.823c.008.425-.254.779-.615.87a.22.22 0 0 0-.118.081.1.1 0 0 1-.077.039.1.1 0 0 1-.08-.041.24.24 0 0 0-.121-.084c-.365-.101-.641-.461-.65-.886l-.008-.712a.27.27 0 0 1-.144-.19c-.116-.594.094-1.023.612-1.324.102-.06.243-.143.266-.24.055-.229.108-.85.234-1.648a.5.5 0 0 0-.073.059c-.061.062-.108.16-.149.239-.043.08-.061.174-.11.251-.044.069-.102.089-.169.123q-.087.043-.174.089c-.465.245-.718.784-.663 1.335.037.37-.038.567-.304.577a.2.2 0 0 0-.19.187c-.074.938-.108 1.059-.509 1.108-.095.011-.148.122-.103.212.117.233.238.458.315.701.249.796-.109 1.415-.85 1.391.402.491.641 1.022.304 1.596-.104.176-.405.211-.63.317.242.9.12 1.507-.708 1.261-.109.292-.165.632-.342.86-.181.232-.468.48-.75.344-.228-.11-.346-.381-.394-.624-.065-.324.026-.686.042-.928-.272-.318-.489-.725-.353-1.162a1.7 1.7 0 0 1 .25-.465c.095-.133.306-.284.33-.447.051-.344-.271-.328-.48-.346-.329-.029-.152-.615-.09-.816.047-.154.191-.282.311-.397.358-.343.724-.675 1.026-.954l-.507-.497c-1.12.753-1.931 1.765-1.958 3.011.793.482 1.022.897.888 1.707a.43.43 0 0 1-.239.304l.081.859c.043.418-.193.788-.55.908a.23.23 0 0 0-.112.089.1.1 0 0 1-.075.045.11.11 0 0 1-.084-.033.25.25 0 0 0-.128-.074c-.376-.069-.684-.401-.727-.82l-.075-.799c-.183.017-.346-.128-.353-.331-.021-.667.218-1.199.648-1.667.204-.222.34-.518.507-.781l-.151-.125q-.19.222-.378.446c-.848 1.037-1.352 2.105-.46 3.451.257.388.187.885-.233 1.156.313.359.663.679.91 1.077.142.228.206.611.134.867-.051.182-.387.268-.596.397.117.08.285.179.437.301.415.331.614.929.37 1.455-.112.241-.47.345-.737.525.371.449.388 1.081.211 1.739-.14.522-.449.684-.825.334-.335-.311-.56-.763-.842-1.164-.647.398-.852.292-.834-.65.012-.595.182-1.186.274-1.735-.178-.025-.452.025-.575-.102-.152-.157-.169-.47-.249-.711l-.139.015c-.099.862-.179 1.727-.302 2.585-.16 1.119.38 1.805 1.161 2.346.084.057.268.022.368-.042.547-.351.948-.348 1.46.094a.36.36 0 0 1 .099.369l.708.275a.944.944 0 0 1 .602.991.26.26 0 0 0 .033.156c.015.03.019.065.007.097a.12.12 0 0 1-.069.069.26.26 0 0 0-.126.096c-.236.349-.686.505-1.098.349l-.82-.318c-.073.143-.228.219-.374.17-.642-.219-.934-.701-.924-1.447.003-.147.004-.35-.075-.432-.31-.318-.653-.597-.996-.901-.267 1.324.307 2.512 1.387 2.937.121.048.24.104.36.156.826.353.932.756.395 1.455.42-.008.851-.055 1.276-.014.439.042.598.481.361.895-.048.084-.112.159-.19.269.215.029.392.039.562.08.375.09.777.127 1.112.31.524.286.545.603.142 1.138.102-.136.9.56.984.656.241.276.633.892.574 1.304-.033.231-.463.285-.622.277-.648-.029-1.218-.269-1.565-1.012-.143.703-.304.778-.824.54-.607-.278-.862-.841-.995-1.381.049.204-.204.438-.325.551-.165.155-.356.179-.54.017-.163-.144-.264-.364-.344-.567-.053-.135-.5-1.538-.44-1.56-.416.151-.514-.281-.584-.575-.113-.472-.096-.979-.181-1.461-.078-.444-.218-.875-.331-1.311l-.142.041c-.011.05-.033.099-.03.147.147 2.26.998 4.259 1.955 6.209q.014.026.035.051l.042.087a.7.7 0 0 0 .297.036c.165-.021.413-.1.571-.01.163.094.183.48.354.489.275.013.608-.216.888-.075.095.049.248.497.126.496.439.004.913-.075 1.341.061.113.036.233.1.276.218.03.082-.026.527-.152.542.379-.044 1.124-.298 1.367.169a.54.54 0 0 1 .047.335c-.031.193-.085.163.037.338.17.244.399.438.566.69.202.305.005.57-.29.66-.275.085-.499.051-.749-.08-.068-.036-.679-.363-.672-.423-.018.15.049.387-.07.504-.129.128-.505.049-.63-.053-.323-.265-.583-.619-.851-.918-.087.333-.37.286-.599.067-.272-.26-.486-.59-.716-.897-.121-.162-.221-.342-.33-.514l-.013.009c.75 1.468 1.761 3.112 2.851 3.293.434.073.822.372.713.995 1.431.036 1.616.384 1.303.965.339-.004.701-.072 1.033.008.206.051.761.291.748.594-.002.057-.027.11-.051.161l-.136.29c-.109.235.595.843.73 1.066.309.51.108.901-.44.832-.455-.057-.894-.267-1.26-.383-.212.14-.432.411-.631.394-.76-.067-.712-.834-.839-1.297-.171.174-.361.515-.529.503-.197-.015-.461-.302-.542-.536-.16-.46-.214-.965-.307-1.428-.272.357-.517.393-.73-.06-.187-.397-.209-.893-.273-1.351-.038-.271.149-.701-.04-.816-.27-.165-.704-.782-1.152-1.512.033.343.055.599.082.726.018.092.148.174.242.233.476.298.661.706.535 1.258a.26.26 0 0 1-.17.188l-.085.619a.78.78 0 0 1-.683.677.2.2 0 0 0-.12.056.1.1 0 0 1-.077.024.1.1 0 0 1-.069-.044.23.23 0 0 0-.101-.085.786.786 0 0 1-.492-.831l.08-.581a.27.27 0 0 1-.134-.2c-.069-.551.094-.84.54-1.09.081-.046.179-.164.177-.248-.008-.296-.075-.875-.195-1.497a45 45 0 0 1-.374-.669c-.427-1.166-1.083-2.233-1.692-3.437-.093.642-.144 1.108.371 1.49.376.28.734.693.352 1.296.42.325.918.594.602 1.296-.012.027.044.088.065.135.359.807.311.923-.444 1.072.377.63.528 1.068-.085 1.298q.014.1.023.202c.033.411.087.847-.372 1.027-.295.117-.681-.214-.837-.708-.088-.278-.131-.573-.163-.718-.29-.07-.572-.048-.722-.192-.299-.288-.182-.806.245-1.399-.798-.112-.787-.552.062-1.914-.436.23-.536-.014-.494-.401.058-.539.202-1.033.657-1.352.114-.08.247-.211.275-.343.223-1.056.203-2.089-.262-3.104-.256.662-.48 1.151-.541 1.36-.027.095.052.244.11.352.294.546.263 1.03-.128 1.471a.25.25 0 0 1-.245.078l-.257.482a.85.85 0 0 1-.963.436.24.24 0 0 0-.145.013.107.107 0 0 1-.143-.076.25.25 0 0 0-.072-.126.86.86 0 0 1-.189-1.044l.395-.742a.3.3 0 0 1-.011-.233c.209-.549.504-.726 1.043-.706.097.004.247-.05.287-.129.169-.339.463-1.109.681-1.916l-.488-2.845c-.003-.022-.051-.036-.203-.137-.002.304-.017.533-.002.76.038.57.17 1.148.114 1.705-.063.621-.243.674-.75.474-.021.457.02.942-.087 1.384-.056.233-.345.741-.571.715-.087-.01-.331-.199-.433-.35.013.488-.061 1.11-.32 1.536l-.014.03.002-.014c-.164.257-.399.433-.731.441-.169.004-.422-.348-.506-.594-.364-1.063-.078-1.952.741-2.668-.873-.04-.992-.307-.573-1.134.302-.599.717-1.035 1.31-1.264.102-.039.193-.117.219-.134-.292-.108-.729-.124-.84-.34-.216-.422.088-.845.411-1.072.357-.25.792-.367 1.115-.508-.053-.212-.22-.511-.152-.716.065-.196.36-.361.58-.423.459-.129.654-.377.732-.971.077-.574.153-1.149.239-1.722-.617.528-1.112.897-1.285 1.074-.077.079-.075.276-.073.419.011.723-.273 1.191-.895 1.403-.126.042-.257-.013-.334-.122l-.591.371a.94.94 0 0 1-1.153-.108.26.26 0 0 0-.145-.067.117.117 0 0 1-.097-.148.25.25 0 0 0-.002-.159.93.93 0 0 1 .375-1.089l.809-.508c.01-.007.021-.005.032-.006a.35.35 0 0 1 .098-.351c.497-.428.886-.431 1.417-.09.096.061.275.096.356.04.335-.232.998-.8 1.62-1.454q.05-.281.105-.561.073-.35.162-.698a.4.4 0 0 1-.099-.033c.043.021-.341.95-.386 1.038-.067.133-.15.276-.275.36-.141.096-.28.062-.395-.061-.085-.09-.26-.275-.216-.411-.119.361-.329.727-.785.864-.392.116-.507.05-.582-.45-.285.483-.713.596-1.189.557-.116-.01-.43-.086-.445-.249-.026-.29.286-.68.474-.849.066-.059.679-.467.748-.363-.273-.407-.245-.624.151-.774.253-.096.549-.084.827-.112.126-.013.256-.004.415-.004-.053-.083-.096-.141-.128-.204-.157-.308-.023-.597.301-.585.313.011.627.082.934.127-.365-.533-.27-.802.349-.97.091-.025.18-.053.271-.075.393-.094.705-.326.907-.646.223-.45.502-.861.772-1.305q.783-1.29 1.564-2.582c-.165.053-.358.149-.44.312-.231.459-.437.913-1.021.755-.278 1.834-.718 2.263-1.626 1.632-.123.429-.211.877-.381 1.284-.144.346-.359.771-.766.682-.283-.062-.522-.369-.817-.594-.038.069-.112.266-.232.42-.184.235-.374.484-.607.65-.306.217-.637.207-.934-.089-.309-.307-.284-.653-.109-1.007.151-.306.331-.596.498-.892-.578-.638-.652-1.009-.099-1.654.318-.371.82-.573 1.266-.786.261-.124.574-.119.731-.148-.076-.302-.233-.573-.176-.767.209-.708.636-.868 1.399-.693.278-.199.458-.425.658-.447.226-.025.468.132.818.249-.198-.156-.424-.401-.373-.69.068-.381.37-.514.697-.547a.83.83 0 0 1-.557-.727.23.23 0 0 0-.055-.133.1.1 0 0 1-.023-.084.1.1 0 0 1 .055-.071.24.24 0 0 0 .104-.104.92.92 0 0 1 .986-.479l.684.123a.27.27 0 0 1 .228-.187c.555-.043.834.16 1.056.685.04.095.152.214.236.217.34.011 1.052-.042 1.783-.174a.8.8 0 0 0 .07-.23c.025-.184.046-.374.19-.504.164-.149.321-.025.495-.011.207.015.443-.163.576-.322.141-.17.242-.4.436-.487.128-.058.271-.042.409-.049q.037-.003.075-.007l.086-.08c-.074-.03-.143-.095-.199-.212.029.061-1.207.736-1.333.793-.19.087-.406.169-.617.152-.238-.02-.359-.18-.377-.413-.013-.172-.042-.528.126-.638-.447.289-.998.504-1.614.252-.53-.215-.596-.389-.24-1-.734.276-1.3.024-1.784-.435-.119-.113-.393-.471-.266-.661.227-.34.91-.491 1.263-.51.123-.007 1.15.086 1.135.26.059-.684.281-.895.844-.712.359.118.672.39 1 .604.149.097.282.221.456.36.015-.138.019-.238.039-.335.1-.473.5-.67.843-.373.331.285.61.639.907.957.07-.901.41-1.111 1.233-.751.12.052.241.1.36.156a2.04 2.04 0 0 0 1.397.14 37 37 0 0 1 2.651-1.515c-.424-.034-.74-.068-.891-.062-.093.003-.199.133-.275.227-.386.476-.824.605-1.343.357-.101-.048-.155-.158-.152-.272l-.588-.167c-.405-.112-.664-.467-.646-.843a.22.22 0 0 0-.043-.137.1.1 0 0 1-.013-.086.1.1 0 0 1 .061-.065.24.24 0 0 0 .114-.093.92.92 0 0 1 1.029-.38l.525.15a.27.27 0 0 1 .246-.15c.555.03.809.268.969.817.029.1.126.233.209.247.301.05.906.087 1.561.069a53 53 0 0 1 3.85-1.715c-.155.002-.294-.037-.331-.196.009.039-1.152.177-1.268.185a1.6 1.6 0 0 1-.534-.032c-.188-.055-.247-.164-.205-.295.031-.095.094-.294.256-.322-.431.074-.928.088-1.365-.162-.375-.215-.387-.322.048-.588-.66.014-1.055-.228-1.335-.567-.069-.084-.204-.329-.056-.409.265-.142.853-.098 1.143-.043.101.019.908.26.853.352.213-.361.444-.435.854-.231.262.13.449.336.662.513.097.08.174.172.281.28.046-.072.073-.126.113-.175.195-.239.565-.272.771-.047.198.217.338.461.501.688.274-.476.599-.528 1.177-.18q.127.075.252.151c.143.092.301.159.465.213a79 79 0 0 1 2.066-.707v-.001l.002.001.001-.001v.001a74.083 74.083 0 0 1 2.067.707c.164-.054.321-.121.464-.213q.125-.076.253-.151c.578-.348.903-.296 1.177.18.162-.227.302-.471.501-.688.205-.225.576-.192.771.047.04.049.066.103.112.175.107-.108.185-.2.282-.28.212-.177.4-.383.662-.513.41-.204.64-.13.853.231-.054-.092.753-.333.853-.352.29-.055.878-.099 1.143.043.148.08.014.325-.055.409-.28.339-.676.581-1.336.567.436.266.424.373.048.588-.437.25-.933.236-1.365.162.163.028.225.227.257.322.042.131-.018.24-.206.295a1.6 1.6 0 0 1-.534.032c-.115-.008-1.277-.146-1.268-.185-.037.159-.175.198-.331.196a53 53 0 0 1 3.85 1.715c.655.018 1.26-.019 1.561-.069.083-.014.181-.147.21-.247.159-.549.413-.787.969-.817a.27.27 0 0 1 .246.15l.525-.15a.92.92 0 0 1 1.028.38.24.24 0 0 0 .114.093q.047.02.062.065a.1.1 0 0 1-.014.086.23.23 0 0 0-.043.137c.018.376-.24.731-.646.843l-.587.167a.29.29 0 0 1-.152.272c-.52.248-.958.119-1.343-.357-.076-.094-.183-.224-.276-.227-.15-.006-.466.028-.891.062a36 36 0 0 1 2.651 1.515c.456.117.94.077 1.398-.14.118-.056.24-.104.36-.156.823-.36 1.163-.15 1.233.751.296-.318.575-.672.906-.957.343-.297.743-.1.843.373.021.097.024.197.04.335.174-.139.307-.263.456-.36.327-.214.64-.486 1-.604.562-.183.785.028.844.712-.015-.174 1.012-.267 1.134-.26.353.019 1.036.17 1.263.51.127.19-.147.548-.266.661-.484.459-1.049.711-1.784.435.357.611.29.785-.239 1-.617.252-1.168.037-1.615-.252.168.11.139.466.126.638-.017.233-.139.393-.377.413-.21.017-.426-.065-.616-.152-.126-.057-1.363-.732-1.334-.793-.056.117-.124.182-.199.212l.087.08q.037.004.074.007c.138.007.282-.009.41.049.194.087.294.317.436.487.132.159.368.337.575.322.174-.014.331-.138.495.011.145.13.166.32.191.504.01.08.036.157.069.23.731.132 1.444.185 1.784.174.084-.003.195-.122.236-.217.221-.525.501-.728 1.055-.685a.27.27 0 0 1 .229.187l.683-.123a.92.92 0 0 1 .986.479.25.25 0 0 0 .105.104.1.1 0 0 1 .054.071.1.1 0 0 1-.022.084.23.23 0 0 0-.056.133.83.83 0 0 1-.557.727c.328.033.63.166.697.547.051.289-.174.534-.373.69.35-.117.593-.274.819-.249.199.022.379.248.657.447.763-.175 1.19-.015 1.399.693.057.194-.1.465-.176.767.157.029.47.024.732.148.445.213.948.415 1.266.786.552.645.478 1.016-.1 1.654.167.296.347.586.499.892.174.354.199.7-.11 1.007-.296.296-.627.306-.933.089-.234-.166-.424-.415-.608-.65-.12-.154-.194-.351-.231-.42-.296.225-.534.532-.818.594-.407.089-.622-.336-.766-.682-.169-.407-.258-.855-.381-1.284-.907.631-1.347.202-1.626-1.632-.583.158-.79-.296-1.021-.755-.082-.163-.275-.259-.44-.312l1.564 2.582c.271.444.55.855.773 1.305.201.32.513.552.907.646.091.022.18.05.27.075.62.168.714.437.349.97.308-.045.622-.116.934-.127.324-.012.458.277.301.585-.032.063-.075.121-.128.204.159 0 .289-.009.415.004.279.028.575.016.828.112.395.15.424.367.15.774.07-.104.683.304.748.363.188.169.5.559.474.849-.015.163-.328.239-.445.249-.476.039-.903-.074-1.188-.557-.076.5-.191.566-.582.45-.456-.137-.666-.503-.786-.864.045.136-.131.321-.215.411-.115.123-.254.157-.396.061-.125-.084-.208-.227-.275-.36-.044-.088-.429-1.017-.386-1.038a.4.4 0 0 1-.098.033q.088.348.161.698.057.28.105.561c.622.654 1.285 1.222 1.62 1.454.082.056.26.021.357-.04.531-.341.919-.338 1.416.09a.35.35 0 0 1 .098.351c.011.001.023-.001.033.006l.808.508C-.005-.852.14-.398 0 0m-48.968-13.587-.006-.001.006.006zm1.721-.543c-.092.016-.182.158-.247.261-.267.425-.595.622-.999.588.338.131.712.19 1.091.125.34-.059 1.091-.618 1.566-1.062-.684.051-1.206.053-1.411.088m39.634.542-.006.001v.005zm-.48.307c-.405.034-.733-.163-1-.588-.064-.103-.155-.245-.247-.261-.204-.035-.727-.037-1.41-.088.475.444 1.225 1.003 1.565 1.062.379.065.753.006 1.092-.125" style="fill:#274c59;fill-opacity:1;fill-rule:nonzero;stroke:none;stroke-width:.237451" transform="matrix(4.2114 0 0 4.2114 584.017 471.699)"/></g><g style="fill:#274c59;stroke-width:.237451"><path d="m0 0-14.702-2.853-.067-.013v-15.282c0-3.968 1.719-7.659 4.599-9.871L0-35.834l10.17 7.815c2.88 2.212 4.599 5.903 4.599 9.871v15.282Zm-13.557-3.788L0-1.169l13.557-2.619v-14.354c0-3.58-1.544-6.898-4.129-8.875L0-34.229l-9.428 7.212c-2.585 1.977-4.129 5.295-4.129 8.875z" style="fill:#274c59;fill-opacity:1;fill-rule:nonzero;stroke:none;stroke-width:.237451" transform="matrix(4.2114 0 0 4.2114 464.857 538.472)"/></g><g style="fill:#274c59;stroke-width:.237451"><path d="m0 0-12.585-2.431v-13.558c0-3.281 1.401-6.312 3.749-8.107L0-30.855l8.836 6.759c2.347 1.795 3.749 4.826 3.749 8.107v13.558zm6.955-20.278c.171-.345.426-.703.767-.928H2.363q.633.434.828 1.085t.195 1.568v4.581H-3.41v-4.581q0-1.206.256-1.725c.17-.345.426-.703.767-.928h-5.335q.633.434.828 1.085t.195 1.568v10.584q0 1.205-.256 1.724c-.171.346-.426.703-.767.929h5.335q-.635-.434-.828-1.025-.195-.59-.195-1.483v-3.713h6.796v3.568q0 1.206-.256 1.724c-.171.346-.426.703-.767.929h5.359q-.633-.434-.828-1.085t-.195-1.568v-10.584q0-1.206.256-1.725" style="fill:#274c59;fill-opacity:1;fill-rule:nonzero;stroke:none;stroke-width:.237451" transform="matrix(4.2114 0 0 4.2114 464.857 529.4)"/></g><g style="fill:#274c59;stroke-width:.237451"><path d="M0 0a9.1 9.1 0 0 1-1.845-2.005c-.019-.028.021-.05.044-.024C-.562-.63.88-.069 1.953.296l.426 1.092A9 9 0 0 1 .305.237Z" style="fill:#274c59;fill-opacity:1;fill-rule:nonzero;stroke:none;stroke-width:.237451" transform="matrix(4.2114 0 0 4.2114 473.214 581.883)"/></g><g style="fill:#274c59;stroke-width:.237451"><path d="M0 0c-1.396-.696-2.296-1.465-2.714-1.869-.028-.027.025-.055.058-.031C-.829-.589 1.616-.002 2.96.091l.433 1.059A13.7 13.7 0 0 1 .44.209Z" style="fill:#274c59;fill-opacity:1;fill-rule:nonzero;stroke:none;stroke-width:.237451" transform="matrix(4.2114 0 0 4.2114 476.946 579.057)"/></g><g style="fill:#274c59;stroke-width:.237451"><path d="M0 0c.023-.026.063-.004.044.024a9.1 9.1 0 0 1-1.845 2.005l-.305.236A9 9 0 0 1-4.18 3.416l.427-1.091C-2.681 1.96-1.239 1.399 0 0" style="fill:#274c59;fill-opacity:1;fill-rule:nonzero;stroke:none;stroke-width:.237451" transform="matrix(4.2114 0 0 4.2114 464.084 573.34)"/></g><g style="fill:#274c59;stroke-width:.237451"><path d="M0 0c.034-.024.086.004.058.031C-.36.435-1.259 1.204-2.656 1.9l-.44.209c-.83.375-1.813.713-2.952.941l.432-1.059C-4.271 1.898-1.827 1.311 0 0" style="fill:#274c59;fill-opacity:1;fill-rule:nonzero;stroke:none;stroke-width:.237451" transform="matrix(4.2114 0 0 4.2114 463.952 571.055)"/></g><g style="fill:#274c59;stroke-width:.237451"><path d="M0 0c-.127-.249-.358-.538-.693-.937a.047.047 0 0 1 .036-.077s.021.004.029.011c.4.335.69.566.938.693.224-.354.296-.918.378-1.852a.05.05 0 0 1 .046-.043c.024 0 .044.019.046.043.082.934.154 1.498.378 1.852.249-.127.539-.358.938-.693A.05.05 0 0 1 2.159-1a.046.046 0 0 1 .002.063c-.335.399-.566.688-.693.937.355.224.919.297 1.853.378a.046.046 0 0 1 .042.046.05.05 0 0 1-.042.047c-.934.081-1.498.153-1.853.378.127.248.358.538.693.937a.046.046 0 0 1-.002.063.046.046 0 0 1-.063.002c-.399-.335-.689-.565-.938-.692-.224.354-.296.918-.378 1.852a.046.046 0 0 1-.046.042.046.046 0 0 1-.046-.042C.606 2.077.534 1.513.31 1.159c-.248.127-.538.357-.938.692a.045.045 0 0 1-.062-.002.05.05 0 0 1-.003-.063c.335-.399.566-.689.693-.937C-.354.625-.918.552-1.852.471a.05.05 0 0 1-.043-.047c0-.024.019-.044.043-.046C-.918.297-.354.224 0 0" style="fill:#274c59;fill-opacity:1;fill-rule:nonzero;stroke:none;stroke-width:.237451" transform="matrix(4.2114 0 0 4.2114 461.765 587.201)"/></g><g style="fill:#274c59;stroke-width:.237451"><path d="M0 0c-.061.064-.135.115-.185.187q-.209.3-.401.615a.61.61 0 0 0-.051.337c.016.177-.029.326-.177.442a.37.37 0 0 0-.141.316c.001.036-.006.074-.005.111.001.127-.071.168-.159.169-.08 0-.158-.018-.236-.029s-.128.01-.169.092a.36.36 0 0 1-.154.16l-.09.015a.43.43 0 0 1-.362-.252c-.02-.04-.062-.064-.098-.087-.052-.032-.109-.052-.161-.082-.082-.047-.157-.028-.239.048a4 4 0 0 1-.33.285c-.138.107-.283.142-.43.097-.068-.021-.1-.075-.086-.153q.065-.36.294-.642c.066-.08.145-.128.238-.125q.09.001.183-.001c.002-.006.008-.014.006-.019-.039-.097-.408-.049-.466.024 0 0-.137.107-.257.377 0 0-.073.274-1.155.261-.435-.006-.666-.234-1.068-.312-.357-.069-.667-.254-1.039-.293-.424-.044-.868.038-1.299.167a6 6 0 0 1-.427.111 1.3 1.3 0 0 1-.223.032L-9.4-.218q-.268.109-.535.206l1.147 3.251s-.466.021-1.18-.044l-.267-.026c-1.438-.161-3.598-.663-5.178-2.193-1.58 1.53-3.74 2.032-5.177 2.193l-.268.026c-.713.065-1.179.044-1.179.044l1.14-3.232q-.276-.096-.538-.197l-.703 2.041a1.3 1.3 0 0 1-.224-.032 6 6 0 0 1-.426-.111c-.432-.129-.876-.211-1.3-.167-.371.039-.682.224-1.038.293-.402.078-.634.306-1.069.312-1.081.013-1.155-.261-1.155-.261-.12-.27-.257-.377-.257-.377-.058-.073-.427-.121-.466-.024-.002.005.005.013.007.019q.091.002.183.001c.092-.003.171.045.237.125q.23.281.294.642c.015.078-.018.132-.086.153-.147.045-.292.01-.43-.097a5 5 0 0 1-.33-.285c-.082-.076-.156-.095-.239-.048-.052.03-.109.05-.16.082-.037.023-.079.047-.098.087a.43.43 0 0 1-.362.252l-.091-.015a.36.36 0 0 1-.154-.16c-.041-.082-.091-.103-.168-.092s-.156.029-.236.029c-.088-.001-.16-.042-.159-.169 0-.037-.007-.075-.006-.111a.37.37 0 0 0-.141-.316c-.148-.116-.193-.265-.176-.442a.6.6 0 0 0 .001-.154.5.5 0 0 0-.053-.183 13 13 0 0 0-.4-.615c-.05-.072-.125-.123-.186-.187-.038-.04-.071-.086-.107-.129v-.104c.003-.074.012-.147.01-.222-.005-.144.027-.19.147-.208a1 1 0 0 0 .183-.04.5.5 0 0 1 .403.059c.039.022.095.035.128.018.143-.071.3-.079.461-.072.141.005.35.08.477.064.227-.028.343-.27.456-.45.06-.095.116-.199.197-.274.084-.078.204-.102.28-.189.112-.13.038-.325-.033-.514a1.4 1.4 0 0 1-.083-.273c-.028-.2-.066-.475.013-.677.037-.094-.048-.292-.105-.424l-.037-.089-.073-.187-.062-.16q-.014-.037-.035-.082c-.037-.086-.08-.184-.082-.26-.003-.147.117-.249.214-.33l.038-.032.07-.061c.076-.064.155-.131.219-.21a.5.5 0 0 0 .054-.088l.016-.034c.037-.075.075-.153.14-.187.139-.071.406.084.535.261.094.128.107.251.036.338-.081.1-.21.132-.334.163-.077.02-.15.038-.212.071q-.16.085-.167.208c-.008.16.169.35.326.516l.078.085c.275.302.439.592.502.886q.003.016.017.024a.02.02 0 0 0 .025-.001c.145-.103.356-.129.542-.144.252-.022.429.071.654.188l.058.03a.02.02 0 0 0 .02.002.02.02 0 0 0 .013-.015l.004-.013.001-.003.023-.134.006-.032c.02-.123.039-.239.069-.349l.014-.051c.034-.12.077-.248.145-.349a.7.7 0 0 0 .095-.229.93.93 0 0 0-.137-.56s-.063-.087-.021-.267a.841.841 0 0 1-.115-.107c-.064-.072-.115-.16-.113-.252a.2.2 0 0 1 .01-.058c.024-.08.147-.081.233-.091.045-.005.091-.004.137-.006h.016c.044 0 .115.003.152.006a1 1 0 0 1 .204.032.42.42 0 0 1 .268.203c.035.067-.056.145-.091.195l-.004.008c-.047.075-.006.123.001.202.014.137-.023.315-.063.447-.037.122.017.227.061.339l.006.016 1.634-2.165.003.002.002-.002s1.212.355 2.827-.25l-1.081 1.379c.723.396 1.576.78 2.532 1.08l3.613-1.199 3.587 1.19a14 14 0 0 0 2.627-1.156l-1.124-1.434c1.616.605 2.88.26 2.88.26l.012.018.006-.004 1.562 2.231c.04-.1.081-.196.048-.305a1.3 1.3 0 0 1-.064-.447c.008-.079.048-.127.002-.202l-.005-.008c-.035-.05-.125-.128-.091-.195l.014-.025a.42.42 0 0 1 .254-.178 1 1 0 0 1 .205-.032c.036-.003.108-.006.152-.006h.015c.046.002.092.001.138.006.086.01.208.011.233.091a.3.3 0 0 1 .009.058c.003.092-.049.18-.112.252a1 1 0 0 1-.115.107c.042.18-.021.267-.021.267a.93.93 0 0 0-.138.56.7.7 0 0 0 .095.229c.068.101.112.229.145.349l.014.051c.03.11.049.226.07.349l.005.032.023.133.001.004.004.013a.02.02 0 0 0 .014.015.02.02 0 0 0 .02-.002l.057-.03c.225-.117.403-.21.654-.188.186.015.397.041.542.144a.02.02 0 0 0 .025.001.04.04 0 0 0 .018-.024c.063-.294.227-.584.501-.886l.079-.085c.156-.166.334-.356.325-.516q-.007-.123-.166-.208c-.063-.033-.135-.051-.212-.071-.125-.031-.254-.063-.335-.163-.071-.087-.057-.21.037-.338.128-.177.395-.332.534-.261.065.034.103.112.14.187l.017.034a.5.5 0 0 0 .053.088c.065.079.143.146.219.21l.071.061.038.032c.096.081.216.183.213.33a.8.8 0 0 1-.082.26l-.034.082-.063.16-.073.187-.037.089c-.056.132-.142.33-.105.424.08.202.041.477.013.677-.011.084-.046.176-.082.273-.072.189-.145.384-.033.514.075.087.196.111.28.189.08.075.137.179.196.274.113.18.229.422.456.45.128.016.337-.059.478-.064.16-.007.317.001.46.072.033.017.09.004.129-.018a.5.5 0 0 1 .403-.059q.09.027.182.04c.12.018.152.064.148.208-.002.075.006.148.01.222v.104C.072-.086.038-.04 0 0m-5.921-3.193-.901-1.287-.258-.368-.415-.593c-.512.369-1.029.691-1.549.986l-.105.06c-.719.401-1.446.739-2.179.999a12.2 12.2 0 0 1-4.094.723c-1.519 0-2.901-.294-4.103-.713a14 14 0 0 1-2.477-1.141c-.481-.279-.9-.555-1.246-.804l-.367.487-.351.465-.94 1.246-.379.502c.516.391 1.919 1.373 3.944 2.168q.263.102.539.199c1.52.541 3.341.955 5.379.955 1.821 0 3.622-.335 5.391-.979q.268-.098.537-.205A19.8 19.8 0 0 0-5.541-2.65z" style="fill:#274c59;fill-opacity:1;fill-rule:nonzero;stroke:none;stroke-width:.237451" transform="matrix(4.2114 0 0 4.2114 529.766 563.496)"/></g><g style="fill:#274c59;stroke-width:.237451"><path d="m0 0 .081-.231C.087-.249-.052-.355-.146-.41a7 7 0 0 0-.265-.146l-.609.969a.6.6 0 0 0-.087.17c-.002.021.015.042.066.077l.071.05-.05.08c-.082-.051-.192-.121-.312-.191-.123-.071-.237-.132-.322-.179l.05-.08.079.038c.056.027.083.032.102.021a.6.6 0 0 0 .115-.154l.563-.895c.039-.061.052-.1.03-.137l-.042-.074.029-.046c.074.046.155.099.241.148q.126.072.254.141a4 4 0 0 1 .191.108c.11.064.23.136.307.19l.001.022L.08.046Z" style="fill:#274c59;fill-opacity:1;fill-rule:nonzero;stroke:none;stroke-width:.237451" transform="matrix(4.2114 0 0 4.2114 438.306 551.153)"/></g><g style="fill:#274c59;stroke-width:.237451"><path d="M0 0a.6.6 0 0 0-.066.181c0 .026.017.045.071.073l.077.04-.037.08C-.036.338-.116.299-.199.265Q-.324.215-.45.168l.037-.08.083.027c.058.019.085.017.106 0a.6.6 0 0 0 .096-.168l.243-.519C.261-.885.313-1.1-.049-1.25c-.365-.152-.474.031-.616.335l-.25.534A.6.6 0 0 0-.981-.2c.001.026.017.046.071.074l.077.039-.037.08c-.087-.039-.204-.093-.332-.146-.13-.054-.251-.099-.34-.134l.037-.08.083.027c.058.019.085.017.106 0a.6.6 0 0 0 .096-.168l.369-.788c.114-.243.405-.331.814-.161.391.164.515.434.331.828z" style="fill:#274c59;fill-opacity:1;fill-rule:nonzero;stroke:none;stroke-width:.237451" transform="matrix(4.2114 0 0 4.2114 444.125 557.717)"/></g><g style="fill:#274c59;stroke-width:.237451"><path d="M0 0c-.071-.008-.132.073-.181.126l-.515.555.246.624c.019.048.032.091.085.113l.061.023-.02.08-.247-.064-.223-.666-.311.342a.6.6 0 0 1-.216.172l-.385-.193.035-.093c.023.013.046.027.068.033a.12.12 0 0 0 .097-.018 1.6 1.6 0 0 0 .268-.241l.307-.336-.289-.728a.12.12 0 0 0-.062-.062l-.068-.024.021-.08.26.067c.014.056.024.112.043.167l.193.553.488-.54q.105.033.211.063.106.025.213.047L.057.007Z" style="fill:#274c59;fill-opacity:1;fill-rule:nonzero;stroke:none;stroke-width:.237451" transform="matrix(4.2114 0 0 4.2114 453.677 555.18)"/></g><g style="fill:#274c59;stroke-width:.237451"><path d="M0 0c-.06.002-.085.011-.095.03a.6.6 0 0 0-.024.195l-.038.99a.6.6 0 0 0 .008.197c.011.025.033.038.092.045l.085.011-.003.09c-.115-.007-.197-.016-.266-.018q-.097-.003-.264-.004c-.031-.086-.064-.187-.102-.279L-.991.323l-.393.785c-.052.108-.142.286-.187.384-.091-.006-.183-.015-.274-.019q-.138-.003-.276-.004l.004-.089.085-.005c.059-.002.083-.013.095-.037a.6.6 0 0 0 .024-.196l.038-.989a.6.6 0 0 0-.008-.197c-.011-.024-.033-.038-.092-.045L-2.06-.1l.003-.089q.133.01.264.018.13.003.261.003l-.003.09-.085.004c-.06.002-.083.013-.096.037a.6.6 0 0 0-.023.196l-.039 1.001.004.001.568-1.131q.05-.098.09-.197l.078.003c.033.098.081.219.125.325l.427 1.05h.005l.039-.999A.6.6 0 0 0-.451.015c-.008-.02-.033-.03-.092-.037l-.085-.011.004-.097c.094.006.22.016.357.021.135.006.262.007.356.008l-.004.097z" style="fill:#274c59;fill-opacity:1;fill-rule:nonzero;stroke:none;stroke-width:.237451" transform="matrix(4.2114 0 0 4.2114 466.856 556.424)"/></g><g style="fill:#274c59;stroke-width:.237451"><path d="m0 0-.011-.089.083-.018c.059-.012.08-.027.089-.052a.6.6 0 0 0-.008-.198l-.071-.58c-.042-.349-.113-.565-.493-.518-.384.048-.379.264-.337.604l.072.598a.7.7 0 0 0 .04.193c.014.022.039.032.098.029l.086-.003.01.089c-.093.009-.219.02-.353.037-.137.017-.261.037-.354.051L-1.16.054l.083-.018c.059-.012.08-.027.088-.052a.6.6 0 0 0-.008-.197l-.107-.882c-.033-.272.164-.495.594-.548.412-.052.658.126.712.566l.085.704a.7.7 0 0 0 .04.193c.014.023.039.032.098.029L.51-.154l.011.089q-.13.01-.26.025C.174-.029.086-.013 0 0" style="fill:#274c59;fill-opacity:1;fill-rule:nonzero;stroke:none;stroke-width:.237451" transform="matrix(4.2114 0 0 4.2114 474.053 562.203)"/></g><g style="fill:#274c59;stroke-width:.237451"><path d="M0 0q-.128.03-.254.063-.127.038-.252.079L-.53.055l.08-.03c.056-.021.075-.039.08-.065a.6.6 0 0 0-.036-.194l-.229-.84-.458 1.045c-.053.12-.095.251-.143.374q-.094.021-.187.045-.133.039-.264.082L-1.71.385l.08-.03c.056-.021.075-.039.08-.065a.7.7 0 0 0-.036-.194l-.26-.955a.6.6 0 0 0-.067-.185c-.017-.02-.043-.026-.101-.014l-.084.016-.024-.087q.129-.03.256-.064c.084-.023.167-.052.25-.078l.024.087-.08.03c-.056.021-.075.039-.08.065a.7.7 0 0 0 .036.194l.249.915.005-.001.468-1.113c.056-.132.119-.268.181-.401l.173-.081.018.005c.017.071.035.156.057.238L-.276-.27a.6.6 0 0 0 .067.185c.018.02.043.026.102.014l.083-.015z" style="fill:#274c59;fill-opacity:1;fill-rule:nonzero;stroke:none;stroke-width:.237451" transform="matrix(4.2114 0 0 4.2114 485.432 559.532)"/></g><g style="fill:#274c59;stroke-width:.237451"><path d="m0 0-.036-.082.074-.042C.091-.153.107-.173.107-.2a.6.6 0 0 0-.064-.187l-.438-.992c-.031-.069-.056-.102-.098-.107l-.085-.01-.022-.051c.114-.049.218-.091.323-.139.105-.047.205-.098.309-.148l.019-.009c.441-.201.982-.09 1.215.437.219.496.048.808-.402 1.013C.68-.31.459-.217.323-.155.242-.118.137-.065 0 0m.551-.384c.478-.217.576-.483.383-.921-.196-.443-.48-.575-.897-.385a1 1 0 0 0-.175.092L.42-.335a1 1 0 0 0 .131-.049" style="fill:#274c59;fill-opacity:1;fill-rule:nonzero;stroke:none;stroke-width:.237451" transform="matrix(4.2114 0 0 4.2114 487.62 558.735)"/></g><g style="fill:#274c59;stroke-width:.237451"><path d="m0 0-.049-.083C.033-.13.144-.192.262-.264c.116-.07.221-.14.301-.191l.049.084-.069.05c-.049.035-.066.057-.064.078q.006.047.086.177l.5.851a.6.6 0 0 0 .113.16c.018.012.045.008.098-.019l.077-.038.049.083c-.082.047-.193.109-.309.179-.118.072-.224.142-.303.193l-.049-.084.069-.05c.049-.036.065-.057.064-.078A.7.7 0 0 0 .788.953l-.5-.85a.6.6 0 0 0-.114-.161C.157-.07.13-.065.076-.038Z" style="fill:#274c59;fill-opacity:1;fill-rule:nonzero;stroke:none;stroke-width:.237451" transform="matrix(4.2114 0 0 4.2114 492.887 548.889)"/></g><g style="fill:#274c59;stroke-width:.237451"><path d="M0 0c-21.934 0-39.778 17.844-39.778 39.778S-21.934 79.556 0 79.556s39.778-17.844 39.778-39.778S21.934 0 0 0m0 79.096c-21.68 0-39.318-17.638-39.318-39.318S-21.68.46 0 .46s39.318 17.638 39.318 39.318S21.68 79.096 0 79.096" style="fill:#274c59;fill-opacity:1;fill-rule:nonzero;stroke:none;stroke-width:.237451" transform="matrix(4.2114 0 0 4.2114 464.857 311.28)"/></g><g style="fill:#274c59;stroke-width:.237451"><path d="M0 0c-16.692 0-30.272-13.58-30.272-30.272S-16.692-60.544 0-60.544s30.272 13.58 30.272 30.272S16.692 0 0 0m29.825-30.272c0-16.445-13.38-29.825-29.825-29.825s-29.825 13.38-29.825 29.825S-16.445-.448 0-.448s29.825-13.379 29.825-29.824" style="fill:#274c59;fill-opacity:1;fill-rule:nonzero;stroke:none;stroke-width:.237451" transform="matrix(4.2114 0 0 4.2114 464.856 606.29)"/></g></g></g></svg>